solid ASCII
  facet normal -0.000000e+00 1.000000e+00 0.000000e+00
    outer loop
      vertex   -5.000000e+00 -5.000000e-01 2.500000e+01
      vertex   5.000000e+00 -5.000000e-01 2.500000e+01
      vertex   -5.000000e+00 -5.000000e-01 2.470000e+01
    endloop
  endfacet
  facet normal 0.000000e+00 1.000000e+00 0.000000e+00
    outer loop
      vertex   -5.000000e+00 -5.000000e-01 2.470000e+01
      vertex   5.000000e+00 -5.000000e-01 2.500000e+01
      vertex   5.000000e+00 -5.000000e-01 2.470000e+01
    endloop
  endfacet
  facet normal -0.000000e+00 -1.000000e+00 -0.000000e+00
    outer loop
      vertex   5.000000e+00 5.000000e-01 2.500000e+01
      vertex   -5.000000e+00 5.000000e-01 2.500000e+01
      vertex   5.000000e+00 5.000000e-01 2.470000e+01
    endloop
  endfacet
  facet normal 0.000000e+00 -1.000000e+00 0.000000e+00
    outer loop
      vertex   5.000000e+00 5.000000e-01 2.470000e+01
      vertex   -5.000000e+00 5.000000e-01 2.500000e+01
      vertex   -5.000000e+00 5.000000e-01 2.470000e+01
    endloop
  endfacet
  facet normal 0.000000e+00 0.000000e+00 1.000000e+00
    outer loop
      vertex   -5.000000e+00 -5.000000e-01 2.470000e+01
      vertex   5.000000e+00 -5.000000e-01 2.470000e+01
      vertex   -5.000000e+00 5.000000e-01 2.470000e+01
    endloop
  endfacet
  facet normal -0.000000e+00 0.000000e+00 1.000000e+00
    outer loop
      vertex   -5.000000e+00 5.000000e-01 2.470000e+01
      vertex   5.000000e+00 -5.000000e-01 2.470000e+01
      vertex   5.000000e+00 5.000000e-01 2.470000e+01
    endloop
  endfacet
  facet normal 0.000000e+00 0.000000e+00 1.000000e+00
    outer loop
      vertex   -5.000000e+00 5.000000e-01 2.500000e+01
      vertex   5.000000e+00 5.000000e-01 2.500000e+01
      vertex   -5.000000e+00 5.000000e+00 2.500000e+01
    endloop
  endfacet
  facet normal -0.000000e+00 0.000000e+00 1.000000e+00
    outer loop
      vertex   -5.000000e+00 5.000000e+00 2.500000e+01
      vertex   5.000000e+00 5.000000e-01 2.500000e+01
      vertex   5.000000e+00 5.000000e+00 2.500000e+01
    endloop
  endfacet
  facet normal 0.000000e+00 0.000000e+00 1.000000e+00
    outer loop
      vertex   5.000000e+00 -5.000000e-01 2.500000e+01
      vertex   -5.000000e+00 -5.000000e-01 2.500000e+01
      vertex   5.000000e+00 -5.000000e+00 2.500000e+01
    endloop
  endfacet
  facet normal 0.000000e+00 0.000000e+00 1.000000e+00
    outer loop
      vertex   5.000000e+00 -5.000000e+00 2.500000e+01
      vertex   -5.000000e+00 -5.000000e-01 2.500000e+01
      vertex   -5.000000e+00 -5.000000e+00 2.500000e+01
    endloop
  endfacet
  facet normal -1.000000e+00 -0.000000e+00 -0.000000e+00
    outer loop
      vertex   -5.000000e+00 -5.000000e-01 2.500000e+01
      vertex   -5.000000e+00 -5.000000e-01 2.470000e+01
      vertex   -5.000000e+00 -5.000000e+00 2.500000e+01
    endloop
  endfacet
  facet normal -1.000000e+00 0.000000e+00 0.000000e+00
    outer loop
      vertex   -5.000000e+00 -5.000000e+00 2.500000e+01
      vertex   -5.000000e+00 -5.000000e-01 2.470000e+01
      vertex   -5.000000e+00 -5.000000e+00 2.000000e+01
    endloop
  endfacet
  facet normal -1.000000e+00 0.000000e+00 0.000000e+00
    outer loop
      vertex   -5.000000e+00 -5.000000e+00 2.000000e+01
      vertex   -5.000000e+00 -5.000000e-01 2.470000e+01
      vertex   -5.000000e+00 5.000000e-01 2.470000e+01
    endloop
  endfacet
  facet normal -1.000000e+00 0.000000e+00 0.000000e+00
    outer loop
      vertex   -5.000000e+00 -5.000000e+00 2.000000e+01
      vertex   -5.000000e+00 5.000000e-01 2.470000e+01
      vertex   -5.000000e+00 5.000000e+00 2.000000e+01
    endloop
  endfacet
  facet normal -1.000000e+00 0.000000e+00 0.000000e+00
    outer loop
      vertex   -5.000000e+00 5.000000e+00 2.000000e+01
      vertex   -5.000000e+00 5.000000e-01 2.470000e+01
      vertex   -5.000000e+00 5.000000e+00 2.500000e+01
    endloop
  endfacet
  facet normal -1.000000e+00 -0.000000e+00 0.000000e+00
    outer loop
      vertex   -5.000000e+00 5.000000e+00 2.500000e+01
      vertex   -5.000000e+00 5.000000e-01 2.470000e+01
      vertex   -5.000000e+00 5.000000e-01 2.500000e+01
    endloop
  endfacet
  facet normal 1.000000e+00 0.000000e+00 0.000000e+00
    outer loop
      vertex   2.500000e+01 -2.500000e+01 0.000000e+00
      vertex   2.500000e+01 2.500000e+01 0.000000e+00
      vertex   2.500000e+01 -2.500000e+01 5.000000e+00
    endloop
  endfacet
  facet normal 1.000000e+00 -0.000000e+00 0.000000e+00
    outer loop
      vertex   2.500000e+01 -2.500000e+01 5.000000e+00
      vertex   2.500000e+01 2.500000e+01 0.000000e+00
      vertex   2.500000e+01 2.500000e+01 5.000000e+00
    endloop
  endfacet
  facet normal 0.000000e+00 -1.000000e+00 0.000000e+00
    outer loop
      vertex   -2.500000e+01 -2.500000e+01 0.000000e+00
      vertex   2.500000e+01 -2.500000e+01 0.000000e+00
      vertex   -2.500000e+01 -2.500000e+01 5.000000e+00
    endloop
  endfacet
  facet normal 0.000000e+00 -1.000000e+00 0.000000e+00
    outer loop
      vertex   -2.500000e+01 -2.500000e+01 5.000000e+00
      vertex   2.500000e+01 -2.500000e+01 0.000000e+00
      vertex   2.500000e+01 -2.500000e+01 5.000000e+00
    endloop
  endfacet
  facet normal -1.000000e+00 0.000000e+00 0.000000e+00
    outer loop
      vertex   -2.500000e+01 2.500000e+01 0.000000e+00
      vertex   -2.500000e+01 -2.500000e+01 0.000000e+00
      vertex   -2.500000e+01 2.500000e+01 5.000000e+00
    endloop
  endfacet
  facet normal -1.000000e+00 -0.000000e+00 0.000000e+00
    outer loop
      vertex   -2.500000e+01 2.500000e+01 5.000000e+00
      vertex   -2.500000e+01 -2.500000e+01 0.000000e+00
      vertex   -2.500000e+01 -2.500000e+01 5.000000e+00
    endloop
  endfacet
  facet normal 0.000000e+00 1.000000e+00 -0.000000e+00
    outer loop
      vertex   2.500000e+01 2.500000e+01 0.000000e+00
      vertex   -2.500000e+01 2.500000e+01 0.000000e+00
      vertex   2.500000e+01 2.500000e+01 5.000000e+00
    endloop
  endfacet
  facet normal 0.000000e+00 1.000000e+00 0.000000e+00
    outer loop
      vertex   2.500000e+01 2.500000e+01 5.000000e+00
      vertex   -2.500000e+01 2.500000e+01 0.000000e+00
      vertex   -2.500000e+01 2.500000e+01 5.000000e+00
    endloop
  endfacet
  facet normal 0.000000e+00 0.000000e+00 1.000000e+00
    outer loop
      vertex   2.000000e+01 2.000000e+01 5.000000e+00
      vertex   -2.500000e+01 2.500000e+01 5.000000e+00
      vertex   -2.000000e+01 2.000000e+01 5.000000e+00
    endloop
  endfacet
  facet normal 0.000000e+00 0.000000e+00 1.000000e+00
    outer loop
      vertex   -2.000000e+01 2.000000e+01 5.000000e+00
      vertex   -2.500000e+01 2.500000e+01 5.000000e+00
      vertex   -2.500000e+01 -2.500000e+01 5.000000e+00
    endloop
  endfacet
  facet normal 0.000000e+00 0.000000e+00 1.000000e+00
    outer loop
      vertex   -2.000000e+01 2.000000e+01 5.000000e+00
      vertex   -2.500000e+01 -2.500000e+01 5.000000e+00
      vertex   -2.000000e+01 -2.000000e+01 5.000000e+00
    endloop
  endfacet
  facet normal 0.000000e+00 0.000000e+00 1.000000e+00
    outer loop
      vertex   -2.000000e+01 -2.000000e+01 5.000000e+00
      vertex   -2.500000e+01 -2.500000e+01 5.000000e+00
      vertex   2.500000e+01 -2.500000e+01 5.000000e+00
    endloop
  endfacet
  facet normal -0.000000e+00 0.000000e+00 1.000000e+00
    outer loop
      vertex   -2.000000e+01 -2.000000e+01 5.000000e+00
      vertex   2.500000e+01 -2.500000e+01 5.000000e+00
      vertex   2.000000e+01 -2.000000e+01 5.000000e+00
    endloop
  endfacet
  facet normal -0.000000e+00 0.000000e+00 1.000000e+00
    outer loop
      vertex   2.000000e+01 -2.000000e+01 5.000000e+00
      vertex   2.500000e+01 -2.500000e+01 5.000000e+00
      vertex   2.000000e+01 2.000000e+01 5.000000e+00
    endloop
  endfacet
  facet normal -0.000000e+00 0.000000e+00 1.000000e+00
    outer loop
      vertex   2.000000e+01 2.000000e+01 5.000000e+00
      vertex   2.500000e+01 -2.500000e+01 5.000000e+00
      vertex   2.500000e+01 2.500000e+01 5.000000e+00
    endloop
  endfacet
  facet normal 0.000000e+00 -0.000000e+00 1.000000e+00
    outer loop
      vertex   2.000000e+01 2.000000e+01 5.000000e+00
      vertex   2.500000e+01 2.500000e+01 5.000000e+00
      vertex   -2.500000e+01 2.500000e+01 5.000000e+00
    endloop
  endfacet
  facet normal 0.000000e+00 -1.000000e+00 0.000000e+00
    outer loop
      vertex   -2.000000e+01 -2.000000e+01 5.000000e+00
      vertex   2.000000e+01 -2.000000e+01 5.000000e+00
      vertex   -2.000000e+01 -2.000000e+01 1.000000e+01
    endloop
  endfacet
  facet normal 0.000000e+00 -1.000000e+00 0.000000e+00
    outer loop
      vertex   -2.000000e+01 -2.000000e+01 1.000000e+01
      vertex   2.000000e+01 -2.000000e+01 5.000000e+00
      vertex   2.000000e+01 -2.000000e+01 1.000000e+01
    endloop
  endfacet
  facet normal 1.000000e+00 0.000000e+00 0.000000e+00
    outer loop
      vertex   2.000000e+01 -2.000000e+01 5.000000e+00
      vertex   2.000000e+01 2.000000e+01 5.000000e+00
      vertex   2.000000e+01 -2.000000e+01 1.000000e+01
    endloop
  endfacet
  facet normal 1.000000e+00 -0.000000e+00 0.000000e+00
    outer loop
      vertex   2.000000e+01 -2.000000e+01 1.000000e+01
      vertex   2.000000e+01 2.000000e+01 5.000000e+00
      vertex   2.000000e+01 2.000000e+01 1.000000e+01
    endloop
  endfacet
  facet normal -1.000000e+00 0.000000e+00 0.000000e+00
    outer loop
      vertex   -2.000000e+01 2.000000e+01 5.000000e+00
      vertex   -2.000000e+01 -2.000000e+01 5.000000e+00
      vertex   -2.000000e+01 2.000000e+01 1.000000e+01
    endloop
  endfacet
  facet normal -1.000000e+00 -0.000000e+00 0.000000e+00
    outer loop
      vertex   -2.000000e+01 2.000000e+01 1.000000e+01
      vertex   -2.000000e+01 -2.000000e+01 5.000000e+00
      vertex   -2.000000e+01 -2.000000e+01 1.000000e+01
    endloop
  endfacet
  facet normal 0.000000e+00 1.000000e+00 -0.000000e+00
    outer loop
      vertex   2.000000e+01 2.000000e+01 5.000000e+00
      vertex   -2.000000e+01 2.000000e+01 5.000000e+00
      vertex   2.000000e+01 2.000000e+01 1.000000e+01
    endloop
  endfacet
  facet normal 0.000000e+00 1.000000e+00 0.000000e+00
    outer loop
      vertex   2.000000e+01 2.000000e+01 1.000000e+01
      vertex   -2.000000e+01 2.000000e+01 5.000000e+00
      vertex   -2.000000e+01 2.000000e+01 1.000000e+01
    endloop
  endfacet
  facet normal 0.000000e+00 0.000000e+00 1.000000e+00
    outer loop
      vertex   1.500000e+01 1.500000e+01 1.000000e+01
      vertex   -2.000000e+01 2.000000e+01 1.000000e+01
      vertex   -1.500000e+01 1.500000e+01 1.000000e+01
    endloop
  endfacet
  facet normal 0.000000e+00 0.000000e+00 1.000000e+00
    outer loop
      vertex   -1.500000e+01 1.500000e+01 1.000000e+01
      vertex   -2.000000e+01 2.000000e+01 1.000000e+01
      vertex   -2.000000e+01 -2.000000e+01 1.000000e+01
    endloop
  endfacet
  facet normal 0.000000e+00 0.000000e+00 1.000000e+00
    outer loop
      vertex   -1.500000e+01 1.500000e+01 1.000000e+01
      vertex   -2.000000e+01 -2.000000e+01 1.000000e+01
      vertex   -1.500000e+01 -1.500000e+01 1.000000e+01
    endloop
  endfacet
  facet normal 0.000000e+00 0.000000e+00 1.000000e+00
    outer loop
      vertex   -1.500000e+01 -1.500000e+01 1.000000e+01
      vertex   -2.000000e+01 -2.000000e+01 1.000000e+01
      vertex   2.000000e+01 -2.000000e+01 1.000000e+01
    endloop
  endfacet
  facet normal -0.000000e+00 0.000000e+00 1.000000e+00
    outer loop
      vertex   -1.500000e+01 -1.500000e+01 1.000000e+01
      vertex   2.000000e+01 -2.000000e+01 1.000000e+01
      vertex   1.500000e+01 -1.500000e+01 1.000000e+01
    endloop
  endfacet
  facet normal -0.000000e+00 0.000000e+00 1.000000e+00
    outer loop
      vertex   1.500000e+01 -1.500000e+01 1.000000e+01
      vertex   2.000000e+01 -2.000000e+01 1.000000e+01
      vertex   1.500000e+01 1.500000e+01 1.000000e+01
    endloop
  endfacet
  facet normal -0.000000e+00 0.000000e+00 1.000000e+00
    outer loop
      vertex   1.500000e+01 1.500000e+01 1.000000e+01
      vertex   2.000000e+01 -2.000000e+01 1.000000e+01
      vertex   2.000000e+01 2.000000e+01 1.000000e+01
    endloop
  endfacet
  facet normal 0.000000e+00 -0.000000e+00 1.000000e+00
    outer loop
      vertex   1.500000e+01 1.500000e+01 1.000000e+01
      vertex   2.000000e+01 2.000000e+01 1.000000e+01
      vertex   -2.000000e+01 2.000000e+01 1.000000e+01
    endloop
  endfacet
  facet normal 0.000000e+00 -1.000000e+00 0.000000e+00
    outer loop
      vertex   -1.500000e+01 -1.500000e+01 1.000000e+01
      vertex   1.500000e+01 -1.500000e+01 1.000000e+01
      vertex   -1.500000e+01 -1.500000e+01 1.500000e+01
    endloop
  endfacet
  facet normal 0.000000e+00 -1.000000e+00 0.000000e+00
    outer loop
      vertex   -1.500000e+01 -1.500000e+01 1.500000e+01
      vertex   1.500000e+01 -1.500000e+01 1.000000e+01
      vertex   1.500000e+01 -1.500000e+01 1.500000e+01
    endloop
  endfacet
  facet normal 1.000000e+00 0.000000e+00 -3.552714e-16
    outer loop
      vertex   1.500000e+01 -1.500000e+01 1.000000e+01
      vertex   1.500000e+01 1.500000e+01 1.000000e+01
      vertex   1.500000e+01 -1.500000e+01 1.500000e+01
    endloop
  endfacet
  facet normal 1.000000e+00 0.000000e+00 -3.552714e-16
    outer loop
      vertex   1.500000e+01 -1.500000e+01 1.500000e+01
      vertex   1.500000e+01 1.500000e+01 1.000000e+01
      vertex   1.500000e+01 1.500000e+01 1.500000e+01
    endloop
  endfacet
  facet normal -1.000000e+00 0.000000e+00 0.000000e+00
    outer loop
      vertex   -1.500000e+01 1.500000e+01 1.000000e+01
      vertex   -1.500000e+01 -1.500000e+01 1.000000e+01
      vertex   -1.500000e+01 1.500000e+01 1.500000e+01
    endloop
  endfacet
  facet normal -1.000000e+00 -0.000000e+00 0.000000e+00
    outer loop
      vertex   -1.500000e+01 1.500000e+01 1.500000e+01
      vertex   -1.500000e+01 -1.500000e+01 1.000000e+01
      vertex   -1.500000e+01 -1.500000e+01 1.500000e+01
    endloop
  endfacet
  facet normal 0.000000e+00 1.000000e+00 -0.000000e+00
    outer loop
      vertex   1.500000e+01 1.500000e+01 1.000000e+01
      vertex   -1.500000e+01 1.500000e+01 1.000000e+01
      vertex   1.500000e+01 1.500000e+01 1.500000e+01
    endloop
  endfacet
  facet normal 0.000000e+00 1.000000e+00 0.000000e+00
    outer loop
      vertex   1.500000e+01 1.500000e+01 1.500000e+01
      vertex   -1.500000e+01 1.500000e+01 1.000000e+01
      vertex   -1.500000e+01 1.500000e+01 1.500000e+01
    endloop
  endfacet
  facet normal 0.000000e+00 0.000000e+00 1.000000e+00
    outer loop
      vertex   1.000000e+01 1.000000e+01 1.500000e+01
      vertex   -1.500000e+01 1.500000e+01 1.500000e+01
      vertex   -1.000000e+01 1.000000e+01 1.500000e+01
    endloop
  endfacet
  facet normal 0.000000e+00 0.000000e+00 1.000000e+00
    outer loop
      vertex   -1.000000e+01 1.000000e+01 1.500000e+01
      vertex   -1.500000e+01 1.500000e+01 1.500000e+01
      vertex   -1.500000e+01 -1.500000e+01 1.500000e+01
    endloop
  endfacet
  facet normal 0.000000e+00 0.000000e+00 1.000000e+00
    outer loop
      vertex   -1.000000e+01 1.000000e+01 1.500000e+01
      vertex   -1.500000e+01 -1.500000e+01 1.500000e+01
      vertex   -1.000000e+01 -1.000000e+01 1.500000e+01
    endloop
  endfacet
  facet normal 0.000000e+00 0.000000e+00 1.000000e+00
    outer loop
      vertex   -1.000000e+01 -1.000000e+01 1.500000e+01
      vertex   -1.500000e+01 -1.500000e+01 1.500000e+01
      vertex   1.500000e+01 -1.500000e+01 1.500000e+01
    endloop
  endfacet
  facet normal -0.000000e+00 0.000000e+00 1.000000e+00
    outer loop
      vertex   -1.000000e+01 -1.000000e+01 1.500000e+01
      vertex   1.500000e+01 -1.500000e+01 1.500000e+01
      vertex   1.000000e+01 -1.000000e+01 1.500000e+01
    endloop
  endfacet
  facet normal -0.000000e+00 0.000000e+00 1.000000e+00
    outer loop
      vertex   1.000000e+01 -1.000000e+01 1.500000e+01
      vertex   1.500000e+01 -1.500000e+01 1.500000e+01
      vertex   1.000000e+01 1.000000e+01 1.500000e+01
    endloop
  endfacet
  facet normal -0.000000e+00 0.000000e+00 1.000000e+00
    outer loop
      vertex   1.000000e+01 1.000000e+01 1.500000e+01
      vertex   1.500000e+01 -1.500000e+01 1.500000e+01
      vertex   1.500000e+01 1.500000e+01 1.500000e+01
    endloop
  endfacet
  facet normal 0.000000e+00 -0.000000e+00 1.000000e+00
    outer loop
      vertex   1.000000e+01 1.000000e+01 1.500000e+01
      vertex   1.500000e+01 1.500000e+01 1.500000e+01
      vertex   -1.500000e+01 1.500000e+01 1.500000e+01
    endloop
  endfacet
  facet normal 0.000000e+00 -1.000000e+00 0.000000e+00
    outer loop
      vertex   -1.000000e+01 -1.000000e+01 1.500000e+01
      vertex   1.000000e+01 -1.000000e+01 1.500000e+01
      vertex   -1.000000e+01 -1.000000e+01 2.000000e+01
    endloop
  endfacet
  facet normal 0.000000e+00 -1.000000e+00 0.000000e+00
    outer loop
      vertex   -1.000000e+01 -1.000000e+01 2.000000e+01
      vertex   1.000000e+01 -1.000000e+01 1.500000e+01
      vertex   1.000000e+01 -1.000000e+01 2.000000e+01
    endloop
  endfacet
  facet normal 1.000000e+00 0.000000e+00 0.000000e+00
    outer loop
      vertex   1.000000e+01 -1.000000e+01 1.500000e+01
      vertex   1.000000e+01 1.000000e+01 1.500000e+01
      vertex   1.000000e+01 -1.000000e+01 2.000000e+01
    endloop
  endfacet
  facet normal 1.000000e+00 -0.000000e+00 0.000000e+00
    outer loop
      vertex   1.000000e+01 -1.000000e+01 2.000000e+01
      vertex   1.000000e+01 1.000000e+01 1.500000e+01
      vertex   1.000000e+01 1.000000e+01 2.000000e+01
    endloop
  endfacet
  facet normal -1.000000e+00 0.000000e+00 0.000000e+00
    outer loop
      vertex   -1.000000e+01 1.000000e+01 1.500000e+01
      vertex   -1.000000e+01 -1.000000e+01 1.500000e+01
      vertex   -1.000000e+01 1.000000e+01 2.000000e+01
    endloop
  endfacet
  facet normal -1.000000e+00 -0.000000e+00 0.000000e+00
    outer loop
      vertex   -1.000000e+01 1.000000e+01 2.000000e+01
      vertex   -1.000000e+01 -1.000000e+01 1.500000e+01
      vertex   -1.000000e+01 -1.000000e+01 2.000000e+01
    endloop
  endfacet
  facet normal 0.000000e+00 1.000000e+00 -0.000000e+00
    outer loop
      vertex   1.000000e+01 1.000000e+01 1.500000e+01
      vertex   -1.000000e+01 1.000000e+01 1.500000e+01
      vertex   1.000000e+01 1.000000e+01 2.000000e+01
    endloop
  endfacet
  facet normal 0.000000e+00 1.000000e+00 0.000000e+00
    outer loop
      vertex   1.000000e+01 1.000000e+01 2.000000e+01
      vertex   -1.000000e+01 1.000000e+01 1.500000e+01
      vertex   -1.000000e+01 1.000000e+01 2.000000e+01
    endloop
  endfacet
  facet normal 0.000000e+00 0.000000e+00 1.000000e+00
    outer loop
      vertex   5.000000e+00 5.000000e+00 2.000000e+01
      vertex   -1.000000e+01 1.000000e+01 2.000000e+01
      vertex   -5.000000e+00 5.000000e+00 2.000000e+01
    endloop
  endfacet
  facet normal 0.000000e+00 0.000000e+00 1.000000e+00
    outer loop
      vertex   -5.000000e+00 5.000000e+00 2.000000e+01
      vertex   -1.000000e+01 1.000000e+01 2.000000e+01
      vertex   -1.000000e+01 -1.000000e+01 2.000000e+01
    endloop
  endfacet
  facet normal 0.000000e+00 0.000000e+00 1.000000e+00
    outer loop
      vertex   -5.000000e+00 5.000000e+00 2.000000e+01
      vertex   -1.000000e+01 -1.000000e+01 2.000000e+01
      vertex   -5.000000e+00 -5.000000e+00 2.000000e+01
    endloop
  endfacet
  facet normal 0.000000e+00 0.000000e+00 1.000000e+00
    outer loop
      vertex   -5.000000e+00 -5.000000e+00 2.000000e+01
      vertex   -1.000000e+01 -1.000000e+01 2.000000e+01
      vertex   1.000000e+01 -1.000000e+01 2.000000e+01
    endloop
  endfacet
  facet normal -0.000000e+00 0.000000e+00 1.000000e+00
    outer loop
      vertex   -5.000000e+00 -5.000000e+00 2.000000e+01
      vertex   1.000000e+01 -1.000000e+01 2.000000e+01
      vertex   5.000000e+00 -5.000000e+00 2.000000e+01
    endloop
  endfacet
  facet normal -0.000000e+00 0.000000e+00 1.000000e+00
    outer loop
      vertex   5.000000e+00 -5.000000e+00 2.000000e+01
      vertex   1.000000e+01 -1.000000e+01 2.000000e+01
      vertex   5.000000e+00 5.000000e+00 2.000000e+01
    endloop
  endfacet
  facet normal -0.000000e+00 0.000000e+00 1.000000e+00
    outer loop
      vertex   5.000000e+00 5.000000e+00 2.000000e+01
      vertex   1.000000e+01 -1.000000e+01 2.000000e+01
      vertex   1.000000e+01 1.000000e+01 2.000000e+01
    endloop
  endfacet
  facet normal 0.000000e+00 -0.000000e+00 1.000000e+00
    outer loop
      vertex   5.000000e+00 5.000000e+00 2.000000e+01
      vertex   1.000000e+01 1.000000e+01 2.000000e+01
      vertex   -1.000000e+01 1.000000e+01 2.000000e+01
    endloop
  endfacet
  facet normal 0.000000e+00 -1.000000e+00 0.000000e+00
    outer loop
      vertex   -5.000000e+00 -5.000000e+00 2.000000e+01
      vertex   5.000000e+00 -5.000000e+00 2.000000e+01
      vertex   -5.000000e+00 -5.000000e+00 2.500000e+01
    endloop
  endfacet
  facet normal 0.000000e+00 -1.000000e+00 0.000000e+00
    outer loop
      vertex   -5.000000e+00 -5.000000e+00 2.500000e+01
      vertex   5.000000e+00 -5.000000e+00 2.000000e+01
      vertex   5.000000e+00 -5.000000e+00 2.500000e+01
    endloop
  endfacet
  facet normal 1.000000e+00 0.000000e+00 0.000000e+00
    outer loop
      vertex   5.000000e+00 -5.000000e-01 2.500000e+01
      vertex   5.000000e+00 -5.000000e+00 2.500000e+01
      vertex   5.000000e+00 -5.000000e-01 2.470000e+01
    endloop
  endfacet
  facet normal 1.000000e+00 0.000000e+00 0.000000e+00
    outer loop
      vertex   5.000000e+00 -5.000000e-01 2.470000e+01
      vertex   5.000000e+00 -5.000000e+00 2.500000e+01
      vertex   5.000000e+00 -5.000000e+00 2.000000e+01
    endloop
  endfacet
  facet normal 1.000000e+00 0.000000e+00 0.000000e+00
    outer loop
      vertex   5.000000e+00 -5.000000e-01 2.470000e+01
      vertex   5.000000e+00 -5.000000e+00 2.000000e+01
      vertex   5.000000e+00 5.000000e+00 2.000000e+01
    endloop
  endfacet
  facet normal 1.000000e+00 -0.000000e+00 0.000000e+00
    outer loop
      vertex   5.000000e+00 -5.000000e-01 2.470000e+01
      vertex   5.000000e+00 5.000000e+00 2.000000e+01
      vertex   5.000000e+00 5.000000e-01 2.470000e+01
    endloop
  endfacet
  facet normal 1.000000e+00 -0.000000e+00 0.000000e+00
    outer loop
      vertex   5.000000e+00 5.000000e-01 2.470000e+01
      vertex   5.000000e+00 5.000000e+00 2.000000e+01
      vertex   5.000000e+00 5.000000e+00 2.500000e+01
    endloop
  endfacet
  facet normal 1.000000e+00 0.000000e+00 0.000000e+00
    outer loop
      vertex   5.000000e+00 5.000000e-01 2.470000e+01
      vertex   5.000000e+00 5.000000e+00 2.500000e+01
      vertex   5.000000e+00 5.000000e-01 2.500000e+01
    endloop
  endfacet
  facet normal 0.000000e+00 1.000000e+00 -0.000000e+00
    outer loop
      vertex   5.000000e+00 5.000000e+00 2.000000e+01
      vertex   -5.000000e+00 5.000000e+00 2.000000e+01
      vertex   5.000000e+00 5.000000e+00 2.500000e+01
    endloop
  endfacet
  facet normal 0.000000e+00 1.000000e+00 0.000000e+00
    outer loop
      vertex   5.000000e+00 5.000000e+00 2.500000e+01
      vertex   -5.000000e+00 5.000000e+00 2.000000e+01
      vertex   -5.000000e+00 5.000000e+00 2.500000e+01
    endloop
  endfacet
  facet normal 0.000000e+00 0.000000e+00 -1.000000e+00
    outer loop
      vertex   -2.500000e+01 2.500000e+01 0.000000e+00
      vertex   2.500000e+01 2.500000e+01 0.000000e+00
      vertex   -2.500000e+01 -2.500000e+01 0.000000e+00
    endloop
  endfacet
  facet normal 0.000000e+00 0.000000e+00 -1.000000e+00
    outer loop
      vertex   -2.500000e+01 -2.500000e+01 0.000000e+00
      vertex   2.500000e+01 2.500000e+01 0.000000e+00
      vertex   2.500000e+01 -2.500000e+01 0.000000e+00
    endloop
  endfacet
endsolid
